<svg width="20" height="20" viewBox="0 0 24 24" xmlns="http://www.w3.org/2000/svg">
<path d="M16.9254 10.0976V6.49312C16.9254 5.54304 16.1552 4.77288 15.2051 4.77288H6.19917C5.24909 4.77288 4.47893 5.54304 4.47893 6.49312V8.63147L7.87787 6.39557L11.9456 10.0189L14.8137 8.54455L16.9254 10.0976ZM16.9079 12.7095L14.7677 11.1791L11.9192 12.6911L7.83249 9.30505L4.47893 11.3091V12.4634C4.47893 13.4134 5.24909 14.1836 6.19917 14.1836H15.2051C16.0716 14.1836 16.7885 13.5429 16.9079 12.7095ZM6.19917 2.49609H15.2051C17.4126 2.49609 19.2021 4.28565 19.2021 6.49312V12.4634C19.2021 14.6708 17.4126 16.4604 15.2051 16.4604H6.19917C3.9917 16.4604 2.20215 14.6708 2.20215 12.4634V6.49312C2.20215 4.28565 3.9917 2.49609 6.19917 2.49609Z"/>
<path d="M3.61118 15.5085C3.69504 17.222 4.88381 18.7521 6.634 19.1912L15.3635 21.3813C17.5062 21.9189 19.679 20.6177 20.2166 18.4749L21.6767 12.6553C22.1771 10.6606 21.0841 8.63991 19.2021 7.93649V10.2583C19.6884 10.7392 19.9153 11.4572 19.7368 12.1686L18.2767 17.9882C18.0079 19.0596 16.9215 19.7102 15.8502 19.4414L7.12069 17.2513C6.6328 17.1289 6.23217 16.837 5.96589 16.4541C5.06994 16.4019 4.25316 16.0548 3.61118 15.5085Z"/>
</svg>
